<?xml version="1.0" encoding="utf-8"?>
<!-- Generator: Adobe Illustrator 24.3.0, SVG Export Plug-In . SVG Version: 6.00 Build 0)  -->
<svg version="1.1" id="Layer_1" xmlns="http://www.w3.org/2000/svg" xmlns:xlink="http://www.w3.org/1999/xlink" x="0px" y="0px"
	 viewBox="0 0 100 100" style="enable-background:new 0 0 100 100;" xml:space="preserve">
<style type="text/css">
	.st0{fill:#EE453B;}
</style>
<g id="Layer_1_2_">
	<path class="st0" d="M82.7,16.7c-15.9-15.9-41.6-15.9-57.4,0C9.6,32.3,9.4,57.4,24.5,73.3l17.9-37c0.2-0.5,0.8-0.6,1.2-0.2
		l10.3,10.3c0.3,0.3,0.8,0.3,1.1,0L82.7,16.7z"/>
	<path class="st0" d="M17.3,83.3c15.9,15.9,41.6,15.9,57.4,0c15.6-15.6,15.8-40.7,0.8-56.6l-17.9,37c-0.2,0.5-0.8,0.6-1.2,0.2
		L46.2,53.6c-0.3-0.3-0.8-0.3-1.1,0L17.3,83.3z"/>
</g>
</svg>
