<?xml version="1.0" encoding="utf-8"?>
<!-- Generator: Adobe Illustrator 25.3.1, SVG Export Plug-In . SVG Version: 6.00 Build 0)  -->
<svg version="1.1" id="Layer_1" xmlns="http://www.w3.org/2000/svg" xmlns:xlink="http://www.w3.org/1999/xlink" x="0px" y="0px"
	 viewBox="0 0 44 44" style="enable-background:new 0 0 44 44;" xml:space="preserve">
<path d="M16.8,30.6c-2.2-2.1-4.8-4.4-4.8-9.5V5.2c0-2.8,1.3-4.6,3.3-4.6s3.3,1.7,3.3,4.6v5.5c0.4-0.2,0.9-0.3,1.4-0.3
	c1.4,0,2.5,0.8,2.9,2.3c0.5-0.3,1.1-0.5,1.7-0.5c1.2,0,2.1,0.6,2.6,1.6c0.3-0.1,0.7-0.2,1-0.2c2.1,0,3.3,1.7,3.3,4.6v7.1
	c0,3.5-1.9,5.4-5.3,5.4h-9.4V30.6z M22.9,27v-0.7c0-2.7-1.4-4.6-3.3-4.6h-0.4l0.4-2c2.5,0,3.7-1,3.7-2.4c0-0.7-0.3-0.7-1.3-0.7h-6.4
	l1.2-1.8V5.2c0-1.9-0.5-2.7-1.3-2.7c-1-0.1-1.5,0.8-1.5,2.7V21c0,4,1.7,5.9,3.6,7.7h8.8c2.4,0,3.4-1,3.4-3.5v-1.6
	c-0.4,0.2-0.9,0.3-1.3,0.3c-0.7,0-1.4-0.2-1.9-0.6c-0.5,0.3-1,0.5-1.7,0.5h-0.3c0.2,0.8,0.4,1.7,0.4,2.6V27H22.9z M13.5,43.3V31.7
	h14.8c2.6,0,4.1,1.4,4.1,4v7.5L13.5,43.3L13.5,43.3z M15.5,41.4h15v-5.7c0-1.6-0.6-2.2-2.1-2.2H15.5V41.4z M18.7,14.6v0.1h2.7
	c0-1.7-0.6-2.6-1.3-2.6C19.3,12.2,18.7,13,18.7,14.6z M23.5,20.6c0.2,0.9,0.7,1.3,1.3,1.3c0.8,0,1.3-0.9,1.3-2.8v-2.5
	c0-1.9-0.5-2.7-1.3-2.7c-0.6,0-1,0.3-1.2,1c1.1,0.3,1.7,1,1.7,2.4S24.7,19.8,23.5,20.6z M26.9,35.8c0-0.8,0.6-1.4,1.4-1.4
	s1.4,0.6,1.4,1.4c0,0.8-0.6,1.4-1.4,1.4S26.9,36.6,26.9,35.8z M29.1,35.8c0-0.5-0.4-0.9-0.9-0.9s-0.9,0.4-0.9,0.9s0.4,0.9,0.9,0.9
	S29.1,36.3,29.1,35.8z M27.7,21.7c0.2,0.3,0.4,0.3,0.8,0.3c0.8,0,1.3-0.9,1.3-2.7v-1.2c0-1.9-0.5-2.8-1.3-2.8c-0.2,0-0.3,0-0.4,0.1
	c0.1,0.4,0.1,0.8,0.1,1.3v2.5C28.1,20.1,27.9,21,27.7,21.7z"/>
</svg>
