<?xml version="1.0" encoding="utf-8"?>
<!-- Generator: Adobe Illustrator 24.3.0, SVG Export Plug-In . SVG Version: 6.00 Build 0)  -->
<svg version="1.1" id="Layer_1" xmlns="http://www.w3.org/2000/svg" xmlns:xlink="http://www.w3.org/1999/xlink" x="0px" y="0px"
	 viewBox="0 0 100 100" style="enable-background:new 0 0 100 100;" xml:space="preserve">
<style type="text/css">
	.st0{fill:#EE453B;}
</style>
<g id="Layer_1_2_">
	<path class="st0" d="M80,19.5c-14.3-14.3-37.5-14.3-51.7,0c-14.1,14-14.3,36.6-0.7,50.9l16.1-33.3c0.2-0.5,0.7-0.5,1.1-0.2l9.3,9.3
		c0.3,0.3,0.7,0.3,1,0L80,19.5z"/>
	<path class="st0" d="M20.1,80.5c14.3,14.3,37.4,14.3,51.7,0c14-14,14.2-36.6,0.7-50.9L56.4,62.8c-0.2,0.4-0.7,0.5-1.1,0.2l-9.2-9.3
		c-0.3-0.3-0.7-0.3-1,0L20.1,80.5z"/>
</g>
</svg>
